<?xml version="1.0" encoding="UTF-8" ?>
<!DOCTYPE svg PUBLIC "-//W3C//DTD SVG 1.1//EN" "http://www.w3.org/Graphics/SVG/1.1/DTD/svg11.dtd">
<svg width="907pt" height="1244pt" viewBox="0 0 907 1244" version="1.1" xmlns="http://www.w3.org/2000/svg">
<g id="#295da7ff">
<path fill="#295da7" opacity="1.00" d=" M 3.16 0.00 L 3.53 0.00 C 5.64 2.71 8.20 5.01 10.60 7.46 C 72.69 70.10 134.83 132.71 196.91 195.37 C 197.03 193.47 197.14 191.57 197.28 189.67 C 198.40 194.82 200.23 199.81 200.98 205.04 C 202.86 216.94 203.25 229.00 203.83 241.00 C 204.07 263.35 204.16 285.70 203.50 308.04 C 202.77 319.01 203.12 330.02 202.43 340.99 C 201.75 350.01 202.08 359.07 201.31 368.08 C 200.23 388.05 200.69 408.06 200.76 428.05 C 201.24 510.42 201.74 592.78 202.21 675.15 C 269.43 675.21 336.65 675.16 403.88 675.17 C 403.90 655.09 403.88 635.02 403.90 614.94 C 425.27 614.94 446.65 614.94 468.02 614.94 C 468.00 634.44 468.18 653.93 468.02 673.42 C 552.03 674.34 636.05 674.85 720.06 675.70 C 703.47 689.48 687.79 704.32 672.58 719.60 C 646.77 745.47 621.93 772.28 596.63 798.65 C 587.11 808.77 577.09 818.41 567.63 828.60 C 559.73 837.05 552.94 846.56 544.22 854.22 C 537.14 860.40 528.18 864.03 519.02 865.75 C 504.54 868.51 489.73 868.42 475.06 868.27 C 427.03 867.74 379.01 868.16 330.98 868.17 C 330.92 942.47 330.92 1016.77 330.95 1091.07 C 351.79 1072.85 372.55 1054.54 393.40 1036.33 C 396.75 1033.44 398.49 1029.22 400.08 1025.20 C 404.49 1013.00 404.67 999.82 404.68 987.00 C 404.56 964.48 402.58 941.63 407.47 919.43 C 426.20 919.41 444.92 919.43 463.64 919.42 C 468.47 939.22 469.19 959.73 470.00 980.02 C 470.37 1000.19 470.50 1020.53 467.30 1040.51 C 466.51 1046.81 462.65 1052.03 459.05 1057.04 C 451.86 1066.74 443.84 1075.80 435.77 1084.77 C 414.18 1108.49 391.48 1131.18 368.56 1153.61 C 342.14 1179.18 315.45 1204.53 287.52 1228.47 C 280.87 1233.78 274.65 1239.90 266.82 1243.46 C 266.72 1097.86 266.85 952.27 266.81 806.67 C 278.45 804.74 290.24 803.93 302.01 803.32 C 353.33 800.99 404.69 803.68 456.02 804.21 C 474.67 804.00 494.25 803.02 511.08 794.15 C 525.18 786.71 534.19 773.12 544.48 761.47 C 551.07 753.73 558.54 746.81 566.24 740.20 C 423.46 739.28 280.68 738.40 137.91 737.41 C 137.24 569.61 136.52 401.81 135.82 234.00 C 135.58 231.55 136.39 228.54 134.31 226.69 C 111.31 202.30 88.49 177.73 65.36 153.45 C 64.90 370.29 64.90 587.13 65.01 803.97 C 113.79 803.98 162.58 803.95 211.37 803.95 C 211.68 825.36 211.94 846.76 212.21 868.16 C 141.74 868.17 71.27 868.17 0.80 868.16 C 0.87 726.12 0.66 584.08 0.94 442.04 C 1.72 295.63 2.53 149.21 3.30 2.79 C 3.26 2.09 3.19 0.70 3.16 0.00 Z" />
<path fill="#295da7" opacity="1.00" d=" M 316.86 80.88 C 320.36 71.03 328.71 62.84 339.03 60.52 C 348.48 58.41 359.12 59.17 367.32 64.70 C 375.17 69.55 379.73 78.20 381.88 86.94 C 384.88 99.32 383.85 112.18 383.93 124.80 C 376.33 124.69 368.74 124.76 361.14 124.76 C 361.08 117.51 361.18 110.27 361.10 103.02 C 360.93 98.60 360.55 93.86 357.89 90.14 C 353.82 84.53 344.17 84.55 340.17 90.23 C 336.94 94.80 337.00 100.65 336.87 106.00 C 336.88 138.98 336.86 171.97 336.88 204.95 C 337.01 209.58 337.06 214.49 339.42 218.63 C 342.76 225.02 352.79 225.69 357.44 220.45 C 360.78 216.47 360.98 210.99 361.12 206.05 C 361.13 196.87 361.13 187.69 361.11 178.52 C 368.74 178.48 376.37 178.50 384.00 178.51 C 383.85 190.36 384.41 202.23 383.46 214.06 C 382.27 224.06 379.27 234.53 371.81 241.71 C 364.08 249.34 352.46 251.71 341.98 249.98 C 332.55 248.76 323.91 242.79 319.41 234.42 C 313.84 224.60 312.91 213.02 312.75 201.96 C 312.74 170.99 312.76 140.03 312.74 109.06 C 312.86 99.56 313.33 89.83 316.86 80.88 Z" />
<path fill="#295da7" opacity="1.00" d=" M 425.98 60.17 C 437.24 58.07 450.05 60.29 458.30 68.73 C 467.80 78.13 470.23 92.17 470.46 105.00 C 470.56 136.66 470.46 168.33 470.51 199.99 C 470.65 212.71 469.36 226.23 461.93 236.99 C 449.17 255.52 417.02 255.11 405.11 235.87 C 398.31 225.62 397.36 212.95 397.13 201.00 C 397.12 170.32 397.13 139.63 397.12 108.95 C 397.37 97.73 398.15 85.96 403.89 76.02 C 408.38 67.77 416.72 61.75 425.98 60.17 M 429.49 86.66 C 421.84 89.61 421.35 99.03 421.37 106.03 C 421.39 139.01 421.36 171.99 421.38 204.97 C 421.53 209.90 421.69 215.23 424.58 219.44 C 429.05 225.99 440.73 225.32 444.08 218.00 C 447.25 211.49 446.18 204.03 446.38 197.04 C 446.38 166.01 446.38 134.99 446.38 103.96 C 446.27 99.16 445.88 93.97 442.91 89.99 C 439.84 86.00 434.05 85.14 429.49 86.66 Z" />
<path fill="#295da7" opacity="1.00" d=" M 760.89 72.99 C 773.13 54.58 804.52 54.84 816.28 73.63 C 825.93 88.84 823.77 107.64 823.94 124.79 C 816.34 124.70 808.74 124.75 801.14 124.76 C 801.08 117.51 801.18 110.27 801.10 103.02 C 800.93 98.58 800.55 93.82 797.86 90.10 C 793.78 84.57 784.22 84.54 780.20 90.15 C 777.15 94.44 777.01 99.92 776.88 104.98 C 776.86 136.67 776.89 168.37 776.87 200.06 C 776.89 204.85 776.72 209.71 777.78 214.42 C 778.61 217.66 780.17 221.13 783.37 222.62 C 788.03 224.89 794.57 224.30 797.84 219.95 C 800.82 215.96 800.98 210.74 801.12 205.97 C 801.11 196.83 801.16 187.69 801.09 178.55 C 808.72 178.44 816.36 178.52 824.00 178.51 C 823.83 190.69 824.48 202.92 823.35 215.07 C 821.93 226.11 817.94 237.86 808.45 244.51 C 800.91 250.01 791.06 251.40 782.00 249.99 C 772.64 248.76 764.02 242.89 759.47 234.62 C 753.99 225.09 752.83 213.82 752.75 203.03 C 752.75 173.34 752.75 143.64 752.75 113.95 C 752.60 100.03 752.82 84.98 760.89 72.99 Z" />
<path fill="#295da7" opacity="1.00" d=" M 486.88 62.00 C 496.98 62.00 507.08 61.99 517.18 62.01 C 525.07 99.10 532.73 136.25 540.81 173.30 C 541.54 159.23 540.92 145.09 541.13 131.00 C 541.11 108.01 541.15 85.02 541.10 62.03 C 548.30 62.01 555.49 61.91 562.68 62.09 C 562.55 123.97 562.64 185.85 562.63 247.73 C 554.44 247.71 546.25 247.84 538.06 247.69 C 535.80 240.30 534.74 232.48 532.92 224.93 C 526.84 196.59 520.81 168.24 514.72 139.90 C 512.61 130.54 510.99 121.06 508.49 111.80 C 508.16 157.13 508.56 202.47 508.29 247.80 C 501.19 247.71 494.09 247.72 486.99 247.79 C 486.73 185.86 486.95 123.93 486.88 62.00 Z" />
<path fill="#295da7" opacity="1.00" d=" M 580.63 62.00 C 590.75 62.00 600.86 61.99 610.98 62.00 C 618.96 99.13 626.54 136.35 634.75 173.42 C 635.33 157.27 634.84 141.09 635.00 124.94 C 635.00 103.96 635.00 82.98 635.00 62.00 C 642.16 62.00 649.33 62.00 656.50 62.00 C 656.45 123.93 656.62 185.87 656.41 247.81 C 648.14 247.64 639.87 247.86 631.60 247.68 C 621.97 202.39 612.40 157.07 602.48 111.85 C 601.94 126.52 602.40 141.23 602.25 155.93 C 602.20 186.54 602.34 217.16 602.18 247.78 C 594.96 247.61 587.73 247.97 580.53 247.58 C 580.76 185.72 580.55 123.86 580.63 62.00 Z" />
<path fill="#295da7" opacity="1.00" d=" M 674.51 62.00 C 696.46 62.00 718.41 62.00 740.37 62.00 C 740.38 70.83 740.37 79.66 740.38 88.49 C 726.45 88.54 712.53 88.45 698.61 88.53 C 698.72 104.96 698.45 121.39 698.74 137.82 C 709.78 137.68 720.83 137.77 731.88 137.77 C 731.87 146.59 731.86 155.40 731.89 164.22 C 720.83 164.24 709.78 164.32 698.73 164.18 C 698.47 183.20 698.69 202.23 698.63 221.25 C 712.52 221.23 726.41 221.30 740.31 221.21 C 740.51 230.00 740.22 238.80 740.47 247.59 C 718.45 247.85 696.42 247.84 674.41 247.60 C 674.63 185.73 674.43 123.87 674.51 62.00 Z" />
<path fill="#295da7" opacity="1.00" d=" M 832.10 62.03 C 856.98 61.96 881.86 62.02 906.74 62.00 C 906.75 70.83 906.74 79.67 906.74 88.50 C 898.32 88.50 889.91 88.50 881.50 88.50 C 881.56 141.54 881.39 194.58 881.58 247.62 C 873.51 247.90 865.43 247.69 857.36 247.73 C 857.42 194.67 857.33 141.61 857.41 88.56 C 848.97 88.42 840.54 88.56 832.11 88.48 C 832.13 79.66 832.15 70.85 832.10 62.03 Z" />
<path fill="#295da7" opacity="1.00" d=" M 314.93 265.13 C 504.39 265.11 693.85 265.15 883.32 265.11 C 883.36 271.76 883.33 278.41 883.33 285.06 C 693.86 285.07 504.40 285.06 314.93 285.06 C 314.92 278.41 314.92 271.77 314.93 265.13 Z" />
<path fill="#295da7" opacity="1.00" d=" M 508.69 300.68 C 514.88 297.53 523.79 298.00 528.28 303.81 C 531.90 308.77 531.17 315.21 531.19 321.00 C 528.12 321.00 525.06 321.00 521.99 321.00 C 521.84 317.49 522.47 313.85 521.50 310.43 C 519.79 306.11 512.34 307.15 512.10 311.86 C 511.84 323.57 512.10 335.30 511.98 347.02 C 512.01 349.27 511.72 351.90 513.46 353.67 C 515.94 355.74 520.67 355.14 521.68 351.75 C 522.39 347.66 521.83 343.46 522.00 339.33 C 525.06 339.31 528.13 339.31 531.20 339.33 C 530.95 346.11 532.50 354.09 527.49 359.59 C 522.54 364.80 513.71 364.80 507.79 361.29 C 503.36 358.49 502.11 352.89 502.01 348.00 C 502.00 336.66 501.98 325.33 502.02 314.00 C 502.08 308.88 503.86 303.18 508.69 300.68 Z" />
<path fill="#295da7" opacity="1.00" d=" M 559.60 300.62 C 565.08 297.89 572.20 298.07 577.23 301.73 C 581.55 305.55 582.13 311.77 582.04 317.20 C 578.97 317.20 575.90 317.20 572.83 317.20 C 572.71 314.57 573.25 311.63 571.65 309.33 C 569.69 307.04 565.38 306.99 563.63 309.54 C 561.82 313.19 562.62 317.78 565.00 321.00 C 568.70 325.95 574.11 329.31 577.81 334.27 C 582.79 340.59 583.57 349.78 580.17 356.99 C 576.22 364.23 566.04 365.28 559.22 361.84 C 553.14 358.34 552.49 350.62 552.77 344.34 C 555.84 344.31 558.91 344.31 561.99 344.33 C 562.11 347.04 561.58 349.96 562.68 352.53 C 563.95 354.99 567.13 355.22 569.50 354.48 C 573.20 352.50 572.59 347.40 571.68 343.99 C 569.26 337.04 562.08 333.74 557.89 328.08 C 553.80 323.44 552.00 316.97 553.07 310.88 C 553.70 306.79 555.70 302.50 559.60 300.62 Z" />
<path fill="#295da7" opacity="1.00" d=" M 320.00 299.80 C 329.00 299.80 338.00 299.80 347.00 299.80 C 347.02 302.78 347.01 305.76 346.91 308.74 C 341.28 308.62 335.64 308.70 330.00 308.68 C 330.00 314.39 329.98 320.10 330.01 325.81 C 334.48 325.79 338.94 325.80 343.41 325.80 C 343.40 328.72 343.41 331.65 343.50 334.57 C 339.00 334.78 334.50 334.64 330.00 334.68 C 330.01 341.06 329.97 347.44 330.03 353.82 C 335.68 353.78 341.34 353.80 347.00 353.80 C 347.01 356.78 347.01 359.75 346.94 362.73 C 337.98 362.65 329.01 362.66 320.05 362.72 C 319.93 341.75 320.03 320.78 320.00 299.80 Z" />
<path fill="#295da7" opacity="1.00" d=" M 352.81 299.81 C 356.12 299.76 359.43 299.75 362.74 299.93 C 362.64 317.89 362.64 335.86 362.74 353.82 C 368.16 353.78 373.58 353.80 379.00 353.80 C 379.01 356.78 379.01 359.75 378.94 362.73 C 370.20 362.52 361.45 362.92 352.71 362.52 C 352.92 341.62 352.74 320.72 352.81 299.81 Z" />
<path fill="#295da7" opacity="1.00" d=" M 383.81 299.80 C 392.78 299.85 401.75 299.69 410.72 299.89 C 410.67 302.82 410.66 305.75 410.69 308.68 C 405.03 308.69 399.38 308.65 393.73 308.71 C 393.69 314.42 393.57 320.14 393.80 325.85 C 398.26 325.76 402.72 325.81 407.19 325.80 C 407.23 328.78 407.21 331.75 407.10 334.72 C 402.64 334.65 398.17 334.65 393.71 334.73 C 393.69 341.10 393.58 347.47 393.77 353.84 C 399.43 353.82 405.09 353.67 410.74 353.93 C 410.67 356.84 410.66 359.76 410.69 362.68 C 401.76 362.71 392.84 362.61 383.92 362.74 C 383.64 341.76 383.88 320.78 383.81 299.80 Z" />
<path fill="#295da7" opacity="1.00" d=" M 414.00 299.80 C 424.12 299.79 434.25 299.82 444.37 299.79 C 444.42 302.75 444.43 305.71 444.43 308.68 C 441.01 308.66 437.59 308.66 434.17 308.75 C 434.29 326.67 434.06 344.59 434.29 362.51 C 430.97 362.77 427.64 362.69 424.32 362.68 C 424.29 344.69 424.38 326.69 424.27 308.70 C 420.86 308.66 417.45 308.67 414.05 308.71 C 413.99 305.74 413.99 302.77 414.00 299.80 Z" />
<path fill="#295da7" opacity="1.00" d=" M 449.32 362.69 C 449.41 341.70 449.15 320.71 449.44 299.73 C 454.94 299.94 460.45 299.64 465.95 299.88 C 470.03 300.07 474.46 301.63 476.61 305.34 C 479.21 309.75 478.28 315.08 478.40 319.94 C 478.50 324.26 476.28 328.80 472.12 330.48 C 474.61 331.73 476.90 333.61 477.65 336.43 C 480.08 344.99 477.32 354.11 479.59 362.70 C 476.22 362.69 472.86 362.70 469.50 362.59 C 467.89 354.95 469.58 347.07 468.41 339.41 C 467.47 335.21 462.50 335.58 459.18 335.72 C 459.14 344.72 459.35 353.73 459.07 362.74 C 455.82 362.67 452.56 362.66 449.32 362.69 M 459.18 308.72 C 459.22 314.75 459.18 320.79 459.21 326.83 C 462.29 326.76 466.51 327.52 468.06 324.01 C 469.21 320.07 469.11 315.68 468.25 311.69 C 467.07 307.79 462.29 308.73 459.18 308.72 Z" />
<path fill="#295da7" opacity="1.00" d=" M 485.59 299.80 C 488.86 299.80 492.14 299.80 495.42 299.80 C 495.47 320.73 495.32 341.65 495.49 362.58 C 492.16 362.73 488.84 362.73 485.52 362.59 C 485.67 341.66 485.53 320.73 485.59 299.80 Z" />
<path fill="#295da7" opacity="1.00" d=" M 537.31 362.68 C 537.43 341.69 537.11 320.70 537.47 299.72 C 540.71 299.81 543.95 299.82 547.20 299.80 C 547.26 320.71 547.08 341.62 547.29 362.52 C 543.97 362.77 540.64 362.69 537.31 362.68 Z" />
<path fill="#295da7" opacity="1.00" d=" M 585.57 308.67 C 585.70 305.75 585.24 302.76 585.82 299.89 C 595.87 299.68 605.94 299.86 616.00 299.80 C 616.01 302.78 616.01 305.75 615.94 308.73 C 612.52 308.66 609.11 308.65 605.71 308.73 C 605.65 326.71 605.69 344.70 605.69 362.68 C 602.43 362.66 599.19 362.67 595.94 362.74 C 595.62 344.74 595.88 326.73 595.81 308.72 C 592.40 308.67 588.98 308.67 585.57 308.67 Z" />
<path fill="#295da7" opacity="1.00" d=" M 624.07 299.80 C 628.48 299.79 632.90 299.82 637.32 299.77 C 640.89 320.72 644.26 341.72 647.62 362.70 C 644.40 362.66 641.18 362.67 637.97 362.73 C 637.11 358.57 636.82 354.34 636.01 350.18 C 632.28 350.53 628.14 349.53 624.68 350.67 C 623.95 354.67 623.61 358.73 622.86 362.73 C 619.89 362.65 616.93 362.67 613.98 362.75 C 617.03 341.72 620.81 320.80 624.07 299.80 M 630.32 310.96 C 628.63 321.21 627.27 331.52 625.96 341.82 C 628.94 341.80 631.92 341.80 634.91 341.77 C 633.23 331.53 632.28 321.16 630.32 310.96 Z" />
<path fill="#295da7" opacity="1.00" d=" M 667.00 299.80 C 673.65 300.11 680.45 299.08 687.00 300.51 C 693.05 301.93 696.15 308.26 696.17 314.06 C 696.21 320.32 697.02 327.51 692.60 332.62 C 688.72 337.02 682.35 336.75 677.00 336.69 C 676.95 345.37 677.10 354.06 676.92 362.74 C 673.63 362.66 670.34 362.66 667.05 362.72 C 666.93 341.75 667.03 320.78 667.00 299.80 M 677.00 308.67 C 677.00 315.06 676.98 321.44 677.02 327.82 C 679.20 327.74 681.45 328.06 683.60 327.50 C 686.67 326.37 686.30 322.60 686.35 319.97 C 686.18 316.78 686.82 313.38 685.48 310.39 C 683.53 307.78 679.77 308.91 677.00 308.67 Z" />
<path fill="#295da7" opacity="1.00" d=" M 701.80 299.81 C 707.20 299.84 712.60 299.72 718.00 299.84 C 722.57 299.90 727.59 301.90 729.59 306.29 C 731.62 310.92 731.01 316.15 730.88 321.07 C 730.66 325.07 728.26 328.57 724.88 330.62 C 727.78 332.04 730.01 334.67 730.57 337.90 C 732.20 346.08 730.12 354.56 731.98 362.72 C 728.69 362.66 725.40 362.67 722.12 362.70 C 720.24 354.88 722.33 346.72 720.73 338.90 C 719.42 335.15 714.89 335.64 711.72 335.68 C 711.64 344.68 711.69 353.68 711.69 362.68 C 708.43 362.66 705.17 362.67 701.92 362.73 C 701.65 341.76 701.87 320.78 701.80 299.81 M 711.73 308.69 C 711.66 314.74 711.61 320.80 711.76 326.85 C 714.84 326.81 719.27 327.42 720.65 323.82 C 721.67 319.76 721.65 315.35 720.61 311.31 C 719.13 307.77 714.74 308.83 711.73 308.69 Z" />
<path fill="#295da7" opacity="1.00" d=" M 738.28 299.89 C 747.25 299.72 756.22 299.79 765.20 299.85 C 765.17 302.78 765.19 305.71 765.27 308.65 C 759.57 308.75 753.87 308.59 748.17 308.75 C 748.22 314.43 748.19 320.11 748.19 325.79 C 752.70 325.84 757.21 325.71 761.73 325.90 C 761.67 328.83 761.66 331.76 761.68 334.69 C 757.18 334.68 752.68 334.64 748.18 334.73 C 748.22 341.09 748.19 347.44 748.20 353.80 C 753.86 353.81 759.52 353.79 765.18 353.80 C 765.25 356.78 765.22 359.76 765.07 362.74 C 756.15 362.61 747.23 362.71 738.31 362.68 C 738.30 341.75 738.37 320.82 738.28 299.89 Z" />
<path fill="#295da7" opacity="1.00" d=" M 770.81 299.80 C 777.54 300.08 784.39 299.14 791.06 300.42 C 796.95 301.64 800.47 307.57 800.57 313.29 C 800.84 323.19 800.59 333.09 800.69 342.99 C 800.70 347.74 800.88 352.89 798.25 357.08 C 795.95 360.91 791.29 362.55 787.01 362.64 C 781.64 362.78 776.27 362.58 770.91 362.73 C 770.66 341.76 770.86 320.78 770.81 299.80 M 780.72 308.71 C 780.66 323.75 780.64 338.78 780.73 353.82 C 783.01 353.76 785.35 354.02 787.62 353.55 C 790.08 352.98 790.85 350.19 790.79 347.97 C 790.82 336.97 790.78 325.97 790.81 314.98 C 790.82 312.97 790.55 310.58 788.69 309.40 C 786.20 308.21 783.36 308.78 780.72 308.71 Z" />
<path fill="#295da7" opacity="1.00" d=" M 807.32 362.68 C 807.43 341.69 807.11 320.69 807.47 299.71 C 810.71 299.81 813.95 299.82 817.20 299.80 C 817.26 320.71 817.08 341.62 817.29 362.53 C 813.96 362.75 810.63 362.70 807.32 362.68 Z" />
<path fill="#295da7" opacity="1.00" d=" M 832.33 300.08 C 836.72 299.42 841.28 299.92 845.74 299.88 C 848.97 320.85 852.61 341.76 855.87 362.73 C 852.61 362.66 849.37 362.66 846.13 362.74 C 845.56 358.58 844.90 354.44 844.42 350.27 C 840.63 350.16 836.83 350.20 833.04 350.18 C 832.27 354.35 831.92 358.58 831.02 362.73 C 828.05 362.66 825.08 362.66 822.12 362.72 C 825.47 341.83 828.86 320.95 832.33 300.08 M 838.36 311.14 C 837.00 321.37 835.54 331.58 834.13 341.80 C 837.10 341.80 840.07 341.80 843.05 341.82 C 842.06 333.15 840.59 324.55 839.51 315.89 C 839.34 314.26 838.88 312.68 838.36 311.14 Z" />
<path fill="#295da7" opacity="1.00" d=" M 860.80 299.80 C 864.04 299.82 867.29 299.81 870.54 299.72 C 870.92 317.75 870.48 335.80 870.76 353.83 C 876.17 353.77 881.58 353.81 887.00 353.80 C 887.01 356.78 887.01 359.76 886.92 362.74 C 878.26 362.65 869.60 362.64 860.94 362.74 C 860.62 341.77 860.89 320.78 860.80 299.80 Z" />
<path fill="#295da7" opacity="1.00" d=" M 405.57 382.53 C 563.87 382.52 722.17 382.75 880.48 382.93 C 877.06 388.52 872.50 393.27 868.20 398.17 C 842.18 426.80 815.11 454.45 788.03 482.08 C 761.01 509.36 734.04 536.72 705.86 562.82 C 701.13 566.83 696.79 571.92 690.52 573.45 C 681.56 575.92 672.26 576.85 663.04 577.76 C 640.09 579.77 617.05 580.30 594.02 580.65 C 536.01 581.31 478.00 580.12 420.00 578.78 C 390.28 578.14 360.56 577.20 330.83 576.97 C 330.81 590.22 330.85 603.47 330.82 616.72 C 309.55 617.36 288.28 618.13 267.00 618.72 C 267.02 583.52 266.95 548.31 266.95 513.11 C 398.31 512.34 529.67 511.60 661.03 510.84 C 664.46 510.90 667.27 508.57 670.08 506.88 C 681.90 498.71 692.10 488.45 701.82 477.93 C 710.48 468.22 718.92 458.14 725.22 446.70 C 618.53 446.61 511.83 446.63 405.14 446.66 C 405.23 425.28 405.51 403.90 405.57 382.53 Z" />
</g>
</svg>
